/* XPM */
static char *_ecf4c6285e9486d850cd0a4d929af98SQB8JZJxn756v0Xa[] = {
/* columns rows colors chars-per-pixel */
"64 64 256 2 ",
"   c #020301",
".  c #070905",
"X  c #180506",
"o  c #021708",
"O  c #170818",
"+  c #071915",
"@  c #171817",
"#  c #13120D",
"$  c #261518",
"%  c #290B0F",
"&  c #002608",
"*  c #003407",
"=  c #042818",
"-  c #013818",
";  c #16261D",
":  c #181A21",
">  c #2A1826",
",  c #321928",
"<  c #062D21",
"1  c #1A2623",
"2  c #013523",
"3  c #013B23",
"4  c #073A28",
"5  c #143A2C",
"6  c #282724",
"7  c #332F2C",
"8  c #26221F",
"9  c #58292B",
"0  c #4E3030",
"q  c #66383A",
"w  c #6D3838",
"e  c #452221",
"r  c #00451A",
"t  c #064B19",
"y  c #004323",
"u  c #004B24",
"i  c #01442B",
"p  c #014C2B",
"a  c #09462C",
"s  c #00542C",
"d  c #005B2D",
"f  c #025627",
"g  c #084834",
"h  c #154B3A",
"j  c #025333",
"k  c #005B33",
"l  c #085839",
"z  c #14553A",
"x  c #244C39",
"c  c #00632B",
"v  c #02633C",
"b  c #026737",
"n  c #00773E",
"m  c #16683B",
"M  c #4B433F",
"N  c #6E413D",
"B  c #603D41",
"V  c #095A42",
"C  c #185945",
"Z  c #124E42",
"A  c #245948",
"S  c #365148",
"D  c #036C43",
"F  c #096745",
"G  c #176649",
"H  c #027444",
"J  c #08774A",
"K  c #15744D",
"L  c #1C6B54",
"P  c #0B7C52",
"I  c #1A7855",
"U  c #076F54",
"Y  c #25664D",
"T  c #276955",
"R  c #28765A",
"E  c #36775D",
"W  c #366754",
"Q  c #297961",
"!  c #397965",
"~  c #3F6D63",
"^  c #197E60",
"/  c #55534D",
"(  c #784647",
")  c #795858",
"_  c #6B4D4C",
"`  c #4B685B",
"'  c #4C7768",
"]  c #71716C",
"[  c #67645E",
"{  c #8A5957",
"}  c #8D5251",
"|  c #94635D",
" . c #8C625A",
".. c #876765",
"X. c #9A6765",
"o. c #8B7978",
"O. c #987675",
"+. c #94716E",
"@. c #A6686C",
"#. c #A87776",
"$. c #B7797A",
"%. c #AB7070",
"&. c #9B5D62",
"*. c #C6747C",
"=. c #02854B",
"-. c #098755",
";. c #178659",
":. c #05955B",
">. c #15935B",
",. c #26845B",
"<. c #35825D",
"1. c #198A62",
"2. c #1B9766",
"3. c #0B9662",
"4. c #278764",
"5. c #348669",
"6. c #28946A",
"7. c #31956B",
"8. c #388A74",
"9. c #2B9B73",
"0. c #399875",
"q. c #288C72",
"w. c #11AC6D",
"e. c #27A675",
"r. c #39A87B",
"t. c #2AAF76",
"y. c #05B15F",
"u. c #468A75",
"i. c #47967A",
"p. c #528A72",
"a. c #6D8A7A",
"s. c #47A67D",
"d. c #51AA7D",
"f. c #27C87C",
"g. c #87847D",
"h. c #97837C",
"j. c #B2837C",
"k. c #C4807F",
"l. c #7C7B80",
"z. c #B37983",
"x. c #827D83",
"c. c #C87B86",
"v. c #CB7C8F",
"b. c #3CA883",
"n. c #39B886",
"m. c #2CBA83",
"M. c #509B84",
"N. c #7D8685",
"B. c #739889",
"V. c #47A784",
"C. c #55A98A",
"Z. c #48B78B",
"A. c #5ABA97",
"S. c #53B590",
"D. c #68B698",
"F. c #70AB96",
"G. c #75B5A2",
"H. c #38C98C",
"J. c #32D08F",
"K. c #29D491",
"L. c #49C997",
"P. c #55C698",
"I. c #4CCE96",
"U. c #59D7A5",
"Y. c #51D1A2",
"T. c #65C8A7",
"R. c #66D6AB",
"E. c #72CFAD",
"W. c #67ECB6",
"Q. c #59E2A6",
"!. c #8C8A8D",
"~. c #868785",
"^. c #978A87",
"/. c #969389",
"(. c #948D94",
"). c #8A9796",
"_. c #9A959B",
"`. c #989698",
"'. c #89918B",
"]. c #A88786",
"[. c #B88888",
"{. c #B99289",
"}. c #BC8B92",
"|. c #A69997",
" X c #BB9797",
".X c #A59090",
"XX c #8FA59A",
"oX c #A6A49A",
"OX c #B3A59D",
"+X c #9C9BA1",
"@X c #A39CA3",
"#X c #A89BA5",
"$X c #BC9EA2",
"%X c #99A6A5",
"&X c #93B5AC",
"*X c #A5A1A5",
"=X c #ACAAA5",
"-X c #ABA5AB",
";X c #A4ABAC",
":X c #ACAAAC",
">X c #A7A4A8",
",X c #B2ABAC",
"<X c #B3A9A9",
"1X c #B6B2AD",
"2X c #ADABB1",
"3X c #ABA6B1",
"4X c #B2ACB2",
"5X c #B4ADBA",
"6X c #B7ADB4",
"7X c #ACB5B6",
"8X c #B5B3B5",
"9X c #B5B4BB",
"0X c #BAB4BB",
"qX c #BCBBBB",
"wX c #B8B7B7",
"eX c #A9B6AD",
"rX c #C68889",
"tX c #C6948B",
"yX c #C98B96",
"uX c #D48B94",
"iX c #CA9798",
"pX c #D69798",
"aX c #D38B8C",
"sX c #E5999A",
"dX c #D1A598",
"fX c #CB9AA1",
"gX c #D69BA3",
"hX c #E69BA3",
"jX c #C9A5A5",
"kX c #D8A5A8",
"lX c #C3B8B8",
"zX c #D4AFB1",
"xX c #E5A7A9",
"cX c #F4A7A9",
"vX c #E5ADB3",
"bX c #E9B7B6",
"nX c #F9B3B7",
"mX c #F1AEAF",
"MX c #EAA99E",
"NX c #8DCCB8",
"BX c #B1C6BE",
"VX c #83E6BA",
"CX c #C3C2BD",
"ZX c #E9C1BF",
"AX c #B7BAC5",
"SX c #BABBC4",
"DX c #BABCCA",
"FX c #B8B6C2",
"GX c #BCBFD0",
"HX c #C3BAC4",
"JX c #BAC5C8",
"KX c #B2D6CC",
"LX c #98D4C5",
"PX c #C5C4C6",
"IX c #D4CCCC",
"UX c #F6C7C8",
/* pixels */
"t m y.y.t r d.d.J.Q.m t r * a s 5.7.,.7.b t <.K m c * r 6.7.,.d.r G C.G.<.& r d.E.s.n t f -.>.c t b d.e.d f >.Y.I.=.c f.H.y.m.y.",
"& f t.f.t r d.Q.y.Q.7.f f r u - c =.;.,.f * c R <.R t r <.7.,.d.z p E D.i.t f C.VXS.-.c -.t.t.e.=.b r.s.c t c t.W.w.c y.f.y.w.=.",
"o r >.I.m r s.VXy.W.d.t y a p * * =.e.r.;.r m d.F.d.z - p 3 = i a & a u.! a p <.d.5.d k s.I.I.Q.-.r >.P.H t d -.W.H.n n w.K.w.3.",
"o * c I.<.* <.E.H.W.s.t - z l k * =.L.I.S.6.<.D.Y A - o + + o + o & = = 2 a a 3 l l - k P.P.d.Y.7.* m P.4.c c >.Q.I.=.c 3.J.J.K.",
"& o t C.C.z Y u.T.U.1.- 4 W Q 9.c w.I.L.R.T.5.R = = + + + + O +   + = o o = h 4 h Y y l S.P.b.A.A.t F S.7.b f -.m.n.3.v 3.Q.K.Q.",
"& o & d.D.Y g g 0.0.P - h p.5.b.2.f.I.L.P.S.z & = = : : O O O O # . o @ # o 1 x h Z i l b.A.P.T.C.t k 4.4.d r H 6.e.e.:.w.Y.K.K.",
"< = # ` i.m 3 = C 4.^ 3 Z B.! q.n.2.I.Z.0.T = . .   . O O , , > $ . X @ $ . # 1 + < < < Z M.A.T.,.u r v ,.v r P r.>.b.w.m.L.m.m.",
"5 5 o 1 m y 2 < g 8.b.4 Z F.q.1.s.b s.C.Y - o + 1 + O O O > , O $ $ % X # $ X     . < = < L 8.Q I G j k 6.K r I Z.J 2.2.2.Y.H.L.",
"2 o @ ; g V 2 4 < G q.U < ~ A.M.C.g i Y = o o . : O O > > , , > % % % % % % % X . # ; + o g Q Q 5.0.u y F 4.u k Z.b.6.P J 1.n.P.",
"g & @ 1 V ^ g 4 4 T b.b.Z L 8.q.~ < + =     6 O > O O O > > > > 0 9 9 9 9 9 e % X X . = + < Z Q 5.i.j p K 7.j s I 9.9.I s p U 9.",
"L - < 5 ! S.b.! 5 T M.Z.U Z Z ~ ` 7 1 :   @ 7 $ $ O > , 7 0 0 0 ) { { { } } N w e X   @ = + 4 Y i.S.V p j 4.j p 3 l I F - - p K ",
"K F h h Q A.A.C.4 C M.G.M.Z Z ~ S 6 6 : X # $ % , , 0 B ) ] o.O.O.j.#.%.j.*.| } ( e X # 6 = 5 A V.A.I 3 - K V V - - 2 i i i i i ",
"H ;.z y j 7.Z.r.Z Z u.NXT.U Z u.S > O 7 , % , 0 q N { O.j.tXtXtXj.j.j.j.j.k.%.| @..., X @ 6 5 z 8.P.q.F 3 I I Q G g 4 i l i < = ",
"n 2.I v k I H.Z.T S ~ G.W.b.S ~ S 1 O > , , 0 ) @.#.rXuXsXaXaXtXtXdXtXj.j.k.k.k.z.z.q   X x 6 5 i.T.P.b.V ^ U L Q G g h h 2 = < ",
":.w.2.r.q.U J.W.8.S Z u.R.Z.T S : +   O > 7 B { pXgXxXcXsXsXsXsXdXdXdXtXk.aXk.k.$.rXB X $ 0 5 5 V.Y.R.T.1.4.F l T V g Z Z 4 2 5 ",
"t.t.e.U.b.g ^ Y.M.~ Z ~ W.T.~ S . : 1 6 _ O.].iXkXvXxXcXcXMXMXcXMXbXMXdXdXaXtXk.$.[.q X e x 6 a M.b.A.T.q.8.I F ! V 2 5 Z 5 < = ",
"H.t.H b.T.v J A.T.M.A ! T.G.M.S O : $ 0 +.z.jXgXzXbXbXbXmXmXcXcXMXcXmXmXpXiX[.[.uX#.{ X X 0 6 & Q S.D.E.0.F 4.I L - i i C A & = ",
"t.n.2.L.P.J G D.G.M.Z ! A.F.M.~ + O   0 O.fXvXkXbXZXZXzXkXMXhXMXnXcXsXpXdXiXdXdX}.[.#.e X 7 .   u.E.E.A.I u K K I - y y C W - 4 ",
"-.r.e.S.S.G F V.F.M.Z Q M.8.u.' + $ # B }.gXzXfXdXzXbXzXxXbXnXnXcXcXmXvXzXdX X{.}.}.j.0 X # o o G D.D.M.R u v 7.s.F p y z R g 3 ",
"b ;.6.9.9.G F R M.M.L T 8.8.8.~ + > $ _ }.fXkXvXZXZXZXZXbXkXMXpXhXxXxXtXO.) _ N ..O.+.M @ # @ a - L 5.0.0.k s 0.S.I p - k L z y ",
"u b P K R K l G M.M.L Q 8.8.! ! + $ O _ }.yXfXgX[.[.[.].tXkXMXxXmXrX{ q e e 0 0 0 _ ) ) / 1 = = = I <.,.0.I r v r.4.s - u K R j ",
"p u v v K R G C ! M.Q L 8.Q b.~ + # X ) zXz.{ q 9 e e q  .tXbXnXuXX.q 9 _ ..h.+._ ) _ ] / ; & = 3 5.s.F ,.s.v - r.r.D r u D 4.v ",
"l y G m G E G z L M.8.L L Q M.Q o @ % ..}.&.w 9 { _ N N  .O.X.} X.|  .| +.[. XjX X#. .o.[ o = - y L s.R I 0.H u 0.Z.;.k k P n.;.",
"m y Y R G E C G Z F.M.U V L b.Q o @ O 0 _ q &.kXiX{.h.].tX{. .9 } %.j. .9 e ) [.vXjX#.$Xo.# + & l p i.V.7.I p v U n.;.b D 9.W.I.",
"R p y G E Y m A C ! T V V Q b.Q & 1 . 0 B { zX&.) 9 q ) #.bX} %.} *.*.( ( %.*.@.c.hX@.].#XM / a.D.F l 7.I k k k ;.L.n.n.H v U.Y.",
"5.z a z Y Y z z C R Q V V L ! M.= = . ] z.#.fX&.&.} #.].+.j.} kX@.@.*.*.*.@.%.aXv.v.%.v. X) ] B.G.I k K I D v j S.V.9.Y.3.r e.Y.",
"5.z y l C h g h Z A T L Z g Q M.E ;   [ .Xz.kXrXyXX.#.}.tXpX@.nXsX*.*.sXcXhXv.sXc.v.z.fX$Xx./.B.G.7.k s I ;.D s P.6.-.P.2.r 3.Y.",
"G i - y z a a a g Z A Y g 2 U M.&XW o / .X].kXgXpXgXbXkXj.@.} cXsX*.} &.*.uXuXv.v.v.v.fX}.(.'.a.V.s.F u F I k y 6.9.1.t.-.d :.m.",
"p r - p z g a h g 4 Z T C 4 Z ! D.p.x a.{.{.yX[.}.iXgX$.%.%.c.nXpXuXrX%.&.&.uXnXnXhXhXyX]./.g.p.5.Z.9.k v K k p K 9.9.2.H f H :.",
"j a a g z z z h A g Z T T Z Z Q ,.E W [ oXzXgXkXiXrX@.( z.sXnXnXnXpXaXxXuX@.c.nXnXhXgXz.^.oX'.F.5.P.Z.J k K I D k I ;.1.P f k e.",
"l s j l z h z A A g Z A A Z Z L G Y x ` /.zXzXUXvXvXxX$.rX&.*.sXxX$.+.rXgX[.@.@.gXuXiXh.|.XXa.NXV.Z.s.D s ,.0.K i k D D -.b D n.",
"j a p p p l C Y Z 5 5 Z Z 4 4 C L G x ` oX$X[.bXxXuXrXuXUXaXuXc.$.[.}.[.iXgXv.&.uXiXgXj.oXa.x i.D.b.6.j r 4.Z.I p J J k D J H e.",
"p u s s f v 0.A.! i 2 Z Z 4 Z C T G h ` oX|.].MXrXc.uXhXvXzXgXzXpXhXgXgXgXuXyXv.aXrXdXh./.] = m E K ;.b u 9.R.r.c b =.c n >.c >.",
"z a u s b J s.VXs.C 3 h h 2 4 i C T h S g..X{.bXpXuXuXuXgXfXfXfXv.v.v.z.z.z.z.z.pXtXiXh.h.p.4 a Y b F v s -.n.L.c c =.b c n c >.",
"z z u d v b ;.E.A.C 2 4 4 4 g 4 g L C A a.h.{.dXuXc.z.c.z.z.z.z.yXv.z.z.#.$.rXrXdXiX{.h.h.a.m r G l v K D k 2.I.>.c n n n =.c n ",
"f m s k J r u V.E.E 4 2 g C C 3 3 U Y Y a.oX.XdXxXpXuXyXv.z.}.yXgXv.v.z.rXtXpXpXtXtXj.+.g.XXp.t G v v K D k P U.L.c c :.t.r.2.b ",
"a z t c J f s s.NXi.z a g C V - g ^ ^ T a.oXoXOXvXkXpXxXxXgXfXgXyXyXyXpXfXiXiXtXk.tXh...g.XXM.g z F D v v j P n.s.n c e.I.Q.I.7.",
"m z r u v f s 0.S.5.C a g T L i l 1.Q L p.'./.OX X{.iXgXgXgXyXyXyXyXiXjXkXiX[.#.{.j.+.h.g.).F.G j k F F k f J 9.t.>.=.t.H.H.I.H.",
"G s f d b f s v F z g 2 i R Q l j 1.1.L E ' ] oX X XpXxXbXvXkXxXgXgXfXjXjXtXj.#.j.j.g.h.a.'.&X! j j 1.0.D f P e.:.f.w.f.J.f.J.J.",
"f u d J H b k u 3 i 3 - 4 L Q g - P 7.R E x ` '..X].}.iXgXgXgXgXvXgXiXtX{.{.j.+.j.O. .h.g.a.LXC.V j b.T.1.k 3.n.-.m.y.f.J.K.Q.J.",
"m * J 7.;.,.4.- - i i 4 4 p G 1.r k I u.R r S /.x.+.#.}.kXgXpXgXfXgXjXiXj.j.j.j. . .h.j.).] KXNXQ V U Z.n.D U n.3.w.w.w.m.K.K.K.",
"I t b 6.n ;.,.u l - = = 4 C L L j * s u.a.B.XX'.O.x.#.#.#.[.pXpXgXkXiX Xj.h.| |  .h.h.j.] &XG.LXG.b.^ S.b.U D 2.e.t.3.n =.w.K.y.",
"6.f b 2.P ;.,.p - = 4 2 < 2 C Q Y y E F.p.XXPXoXx.^.z.+.X.@.$.rXrX[.].+.h.} } | | j.j.h.] JXF.LXNXA.C.T.G.q.V D 2.e.3.H n :.y.:.",
"r.d c ;.;.,.I y = 2 1 = < h ' B.a.d.XXB.` N.BXBXx.o.o.O.O.X.{ { } { { { } } | | %.j.tXM ).3XFXNXNXG.G.NXNXG.M.Q 4.q.9.3.=.=.=.:.",
"P.n f n -.;.G - x ; + = S B.XXBXXXBXa.` '.2X7XlX#X+.) O.j.| N N N ( (  . .| | j.j.tX&.B #X7XKX&X&X&XF.F.F.XXG.G.F.i.i.r.P d H t.",
"U.>.f f c K G - o ; S ] ).eXNXNXoXCXo./ :XPX@XwXHX^.) ..h.| } } N ( } | | h.j.j.k.aXq O.+XAXKX&X+X3X3Xx.).).).).&XF.D.D.0.k b 2.",
"r.>.c r t J G a o x ).wX8X%XXXXXoXCX|.~.<X6X#XlXlXjXh.)  .+.+.| } | | | | %.j.k.aX@.( $X#XHX;X7Xx.#X3X#X#X(.!.N.B.B.F.&XD.5.K K ",
"J =.b u s I Y h a.).:X7X-X%X=XBX1XoX|..X|.lXHX0X<XIXCX..) j.{.#.$.%.%.%.j.j.tXtXiX9 #. XHX4X%XAXFX5Xx.z..X(._._.!.N.a.p.B.G.B.u.",
"b F F k - - ' 7X%X3X3X,X4X3XFX5X-X8XPX!.!.IXlX9XPXCXIXlXh.] ^.].j.k.[.$.[.iXjXiX_ { O.lXPX;XXXBX5X#X#X#X_._.(._.!.!.~.N.N.B.).XX",
"F F j a A B.;X;X;X3X3X4X3X5XFXFX;X7XJXN.l.JXBXwX`.1XlX|.o./.OX.XtXaXaXtXpXdX{.+._ |./ 7 BXIX/.oX5X3X#X#X@X`.!.x.(.(.!.!.(.(.(._.",
"Q j a p.NX&X%X2X2X3X-X#X3X5XFXFX7XAXFXN.N.qXBXwXIXBXg.6 # [ =X X}.iXpXkXzXkX]...|.^.7 . 7 oXBX1X3X#X+X_.`.`.(.(.(.(.(.(.(.(.(.(.",
"C z p.NXKX%X).2X4X-X#X#X3X5XFXDX7XAXFX).`.AXHXwX,XoXg.M 6 / g.] ].}.fXjXjXOX.X^.lXo./ 6   6 g.CX3X5X3X+X!.(._.+X(._._._._.(.(.(.",
"- p.BXNXXXBXSX>X4X3X#X#X3X5XSXSX7XAX7X+X;XwXBX;X] ] !.`.g.g./.^..X$XjX$X].x. XjX.XOXh.] [ ; . [ x.FXPX0X_.(._.@X_._._._.+X_._._.",
"' &XBX&X`.eX0X4X3X3X+X#X3XFXDXAX7XAX;X7X5X8X0X`.(.] ] (.^.g.<XIX6XzX6X#Xo.] ^.lX/././.oXoXa.7 # M x.5XFX>X@X+X@X_._._._.+X+X+X+X",
"JXeX%XeX7XoX@X6X3X#X@X#X2XFXSXAX3XAX%X9XAX;X9X`.(.] ] -X>X^._.wXlX2X#X|.`./.`.oXOX] h.eXh.oXoXM M l.@X#X@X-X:X>X#X@X@X_._.+X+X@X",
";X7XeX=X=XqX0X4X$X#X@X#X9XFXAXFXFXPX%XJXPX;XSX+X9X~.!.9XlX<X8XlX5X`.!.@XwXqX=XoX/.oXoXoXeX/.h.1X(.3X5X#X+X:X2X#X2X>X#X+X_._.+X+X",
"qX:X,X<X-XlXHX|.5X#X@X+X3X5XFXFXGXDXDXDXAX9X9X9X3X>X-X<X6XwX8X8X;X).%X;X).).3X_.=XoXoXoXoXoXoXoX:X,X:X4X4X4X2X4X-X:X-X-X#X_._.@X",
"qX,X<X,X,X6X6X#X5X#X+X+X3XFXFXFXDXDXDXDXJXAXAXqX8X8X4X8XwXlX0X0X7X).;X7X+X%X:X%X1XeX1X=XoXOXOXOX,X2X4X2X2X2X,X4X-X-X2X-X*X+X+X*X",
"lX<X<X<X6X,X-X#X5X-X#X@X3XFXAXAXDXDXAXDXAXAXSXSX9X9X0XwXHXHXlXqX;X+X;XAXeX%X;X+XwX1X1X,X1X<XOX1X,X2X4X4X4X,X4X2X>X:X3X-X>X#X*X-X",
"lX8X<X<X6X#X_.-X6X3X#X@X3XFXFXFXAXAXAXDXAXAXDXSX0X9X9XqXHXlXwX8X).).%X7X2X;X;XoXwX8X1X<X=X=X<X=X5X4X4X4X4X2X2X,X-X-X:X-X>X-X:X:X",
"lXwX=X<XwX_.!.:XFX3X#X@X3XFXFXFXAXDXAXAXDXSXDXSX9X0X0XSXHXlX9X4X~.).oX;X7X1X=X*X0XwX6X4X4X6X,X4X5X4X6X4X4X4X2X4X-X-X-X-X>X-X3X4X",
"8XlX=X1X0X).l.8X5XFX3X3X5XFXHXHXDXDXDXDXAXDXSXAXSXSXHXHXHXHX0X4Xg.oX%X=XBXlX:X:X0X0XwX5X5X5X5X5XwXwX8X5X4X4X4X2X:X2X-X-X>X>X-X5X",
"wXlX=X:XSX~.] 7XFX;X3X#X3XHXHXHXDXGXDXDXAXAXAXFXFX0X0XqXHXwX2X>X~.=X1X=XCXqX=X:X5X5X5X6X6XFXFXHX0X0XwX6X4X4X4X,X-X2X:X>X*X*X-X4X",
"wXBX;X:XDXN.] 7XAX5X3X#X5XFXHXGXGXGXGXDXAXAXFXFX5X5X5X5XwX4X-XoX/.1X<XoXBXwXoX=X,X6X3X3X5X5X5X5X0XwX8X5X4X4X4X3X4X:X-X*X@X@X-X4X"
};
