/* XPM */
static char *_7dd5a93712e4465d0227f787d5e8aaevszHvaHujVuuRRA4[] = {
/* columns rows colors chars-per-pixel */
"64 64 256 2 ",
"   c #070609",
".  c #14070B",
"X  c #05170C",
"o  c #0D0D13",
"O  c #070D13",
"+  c #120D14",
"@  c #170C17",
"#  c #0C1215",
"$  c #0D141B",
"%  c #061917",
"&  c #121116",
"*  c #14131B",
"=  c #19151D",
"-  c #16191B",
";  c #181109",
":  c #271416",
">  c #052719",
",  c #01321C",
"<  c #013A1B",
"1  c #0B2415",
"2  c #0A1A23",
"3  c #171822",
"4  c #1B0B23",
"5  c #261928",
"6  c #072924",
"7  c #162927",
"8  c #033323",
"9  c #023C24",
"0  c #083729",
"q  c #13362D",
"w  c #193937",
"e  c #0F3132",
"r  c #292728",
"t  c #25373A",
"y  c #33292F",
"u  c #2A241A",
"i  c #5A3635",
"p  c #4F302C",
"a  c #6F3735",
"s  c #48231A",
"d  c #02442C",
"f  c #04472A",
"g  c #074734",
"h  c #174539",
"j  c #045638",
"k  c #0F5133",
"l  c #29443C",
"z  c #02653C",
"x  c #00753B",
"c  c #00401E",
"v  c #774438",
"b  c #4F423A",
"n  c #2D3244",
"m  c #593C45",
"M  c #174B44",
"N  c #095C43",
"B  c #195A48",
"V  c #185651",
"C  c #284947",
"Z  c #28564B",
"A  c #295855",
"S  c #385958",
"D  c #344B4C",
"F  c #026D45",
"G  c #086746",
"H  c #16654A",
"J  c #027344",
"K  c #02754A",
"L  c #027C4B",
"P  c #067647",
"I  c #196A54",
"U  c #077A55",
"Y  c #17775B",
"T  c #0F704F",
"R  c #266657",
"E  c #33645B",
"W  c #2B6D52",
"Q  c #3D5D66",
"!  c #187869",
"~  c #376964",
"^  c #287865",
"/  c #37756B",
"(  c #31716E",
")  c #4E4F53",
"_  c #73514D",
"`  c #495965",
"'  c #46696C",
"]  c #476B74",
"[  c #576876",
"{  c #487978",
"}  c #55757B",
"|  c #496F68",
" . c #666D72",
".. c #506362",
"X. c #874A3D",
"o. c #864A44",
"O. c #885548",
"+. c #93564F",
"@. c #A75851",
"#. c #9A655A",
"$. c #886158",
"%. c #A76659",
"&. c #B56B5A",
"*. c #976865",
"=. c #917373",
"-. c #A96C65",
";. c #B66A66",
":. c #AC746B",
">. c #A87568",
",. c #B6786B",
"<. c #B87B74",
"1. c #AD7573",
"2. c #B25963",
"3. c #C47C77",
"4. c #C5766A",
"5. c #C3715E",
"6. c #01854C",
"7. c #048658",
"8. c #02935A",
"9. c #118959",
"0. c #098863",
"q. c #1A8868",
"w. c #079767",
"e. c #169668",
"r. c #0A9B71",
"t. c #169A73",
"y. c #138977",
"u. c #2A8875",
"i. c #398878",
"p. c #289A78",
"a. c #2D8E70",
"s. c #09A873",
"d. c #16A77A",
"f. c #14B579",
"g. c #0BAA6F",
"h. c #27A67A",
"j. c #33AA77",
"k. c #22805C",
"l. c #47867A",
"z. c #4B8B79",
"x. c #529F7A",
"c. c #BB8275",
"v. c #B9847A",
"b. c #AB8274",
"n. c #91877A",
"m. c #C3847C",
"M. c #C7877A",
"N. c #D48A79",
"B. c #D68E7A",
"V. c #297D82",
"C. c #567985",
"Z. c #657989",
"A. c #707A91",
"S. c #B27B82",
"D. c #9B7D89",
"F. c #CD7D86",
"G. c #ED7F8A",
"H. c #3A9884",
"J. c #368F8D",
"K. c #16B886",
"L. c #15B084",
"P. c #28AA85",
"I. c #37A789",
"U. c #26B789",
"Y. c #36B78A",
"T. c #2ABB92",
"R. c #37BA94",
"E. c #35A991",
"W. c #188881",
"Q. c #568888",
"!. c #479A8A",
"~. c #5A9A95",
"^. c #519189",
"/. c #63878A",
"(. c #688994",
"). c #6E9398",
"_. c #47A593",
"`. c #58A698",
"'. c #47B79A",
"]. c #4CB090",
"[. c #6AB199",
"{. c #7398A2",
"}. c #5AB8A4",
"|. c #50B3A3",
" X c #68BAA6",
".X c #71B0AC",
"XX c #489FA6",
"oX c #1AC589",
"OX c #18CA94",
"+X c #38C78B",
"@X c #27C996",
"#X c #36C699",
"$X c #26D89A",
"%X c #2CC98F",
"&X c #2BD7A4",
"*X c #37D7A5",
"=X c #38CFA5",
"-X c #3AE4AF",
";X c #1CD7A0",
":X c #45C699",
">X c #4DCD96",
",X c #47C8A7",
"<X c #57C7A7",
"1X c #49D5A7",
"2X c #57D9A8",
"3X c #56DBB6",
"4X c #52D2B4",
"5X c #68C8A8",
"6X c #76D8B7",
"7X c #6ECEB5",
"8X c #49E5A9",
"9X c #58E9B9",
"0X c #52E7AF",
"qX c #69E8B8",
"wX c #7AE5BC",
"eX c #69EFB5",
"rX c #59D29A",
"tX c #75D7C3",
"yX c #78E6C4",
"uX c #71F0C6",
"iX c #5AEEC5",
"pX c #90908B",
"aX c #A78885",
"sX c #BB8685",
"dX c #B3948E",
"fX c #A7A59D",
"gX c #A5AEAA",
"hX c #98A79D",
"jX c #C78A87",
"kX c #D38A88",
"lX c #CA9489",
"zX c #D8958B",
"xX c #CB9695",
"cX c #D89896",
"vX c #CF8C94",
"bX c #E4978D",
"nX c #E39A97",
"mX c #E18F81",
"MX c #DBA29A",
"NX c #CBA99F",
"BX c #E7A19B",
"VX c #D59BA4",
"CX c #E599A5",
"ZX c #E59EB0",
"AX c #DBA5A6",
"SX c #D0AFB3",
"DX c #E6A7A7",
"FX c #E8B1B5",
"GX c #87D1B4",
"HX c #85E8BB",
"JX c #E8B5C1",
"KX c #AAD1D2",
"LX c #8AEAC8",
"PX c #90D0C7",
"IX c #ECD2D6",
"UX c #85B9C6",
/* pixels */
"<XuX'./ Q.J.^.tX`.l.{ _.'./ E._.l.1X|.^ =X:XI W Y.HX>XH ^ 3X3X'.0Xa.D E.=X'.i.~ S i.>XrXx.~ ` J.R.|.J.w C I.P.I *X^ M 9Xd.k eXj.",
"I.7X<X{ / C.l.4X}.Q.Q.~.`.C.!.~./ <X5Xu.,X'.R ^ >XHXqXj.H p.,X1Xp.Z A E T.,XI.E W }.qXeXHX!.] <X!.!.#XR D '.!.g #Xj.k 0Xj.h rX+X",
"^ 5X6Xi.Q.Q.C.7X5X^.Q.^.}.Q._.!.{ !.3X'.,Xi.E a.8X7X>Xj.Z S p.#XR./ ..!.0X0XLX!.l.wX6X>XHX5Xl.4XQ.[ #XJ.A #XR.w Y.Y.h rX>Xf 0XU.",
"(  X6X^.Q.Z.(.7XtX~./.(.~.~._.^.{ / Q._.P.( E S q.h.p.I w 7 q 8 w H g '.LXi.6X5Xi.wXGXj.HX6Xz.7X~.` I.P.S !.#XC P.U., j.eXh.8Xe.",
"/ }.LX`.~.(.{..XUX.X{.(.(.(.!.C.{ ] { |.'./ S S i.k.H > O             w I A ,XLX!.6XGXx.GX6X/..X}.] _.I.S / 4XP.T.^ 7 B a.%Xe.> ",
"Q.5XHX X~.A.{..X.X.X(.A.(.{.`./.} ] _.3XuXi.S R M 1     @ @   & o . + $ e e 9 I.z.6XHX>XwX6X/.).4X_.I.E ) C / H.! t r 7 k d.t.B ",
"{ _.5X X~.A.{..X.XtX.X(.{.{.}.Q.[ ] { `.yXH.n 6 # = .   o u O : + O   % w A h 2 h z.LXHXyX X .C.~. Xz.W ` S D M V D q 7 P.q.g.$X",
"Q.4XLXGX{.{..XPX{.GXtX(.(.Z.}.~.C.{ ` i.uXl.O   5 % : @   r 3 & ; -   @ 2 n V M O q ^.5X5Xz. .A. X6XrX1X!.n Q R Z I w l $XH k *X",
"Q.}.6XyX).A..XtX{..XtX~.A.A.{.~.[ [ ` { 3Xw   o 3 r r = 4 7 r O o @ @ 5 y y 2 7 M O w 7X7XZ.Z.Q.HXGX].HXrXS ^ A n E g h *XI d @X",
"] z.GXHX).A.UXtX{.pXPX~.Z.A.XXXX] ] Q J.R X & o 5 r p i y y y p r y p ) ) i r & V g X ~.uXZ.[ Q.HX[.k.rXwX~ ~ A t V C w $Xa.7 oX",
"[ [ 5XLX{.(.(.tX.XXXUX(.A.(._.~.Q.' ] ( +   ; s a _ $.#.O._ _ $.#.#.:.&.&.#.O.b C V.6 g qX~. .`.HX5XZ rXHX| S E t H M 7 d.j.B oX",
"] ' '.LX5X(.Z..X.X7X}.Z.Z.} ^._.C.~ ( e . ; s O.X.%.;.4.,.1.c.B.N.N.N.4.5.&.&.b.) V W.e !. Xm C.HX6XW rXHXW C I t C w 3 h d.f.8.",
"Q Q.7XyXyX{.C.Z.{.`.Q.Z.C.Z..XtXz.] ) O ; u v @.@.5.N.5.N.N.B.B.N.B.B.B.N.c.v.dXPXpX( ! V.`.) ] rXHX+X2X<XA t C Z 0 8 r 1 P +X>X",
"' [ `.'.|./.C.Z..X.X7X`.[ ~.tXLX}.S D   u s @.&.5.B.zXB.B.B.N.B.B.bXbXMXMXB.v.v.KXKXV.V.W.yXl.` z.7X>Xj.E n y C a.h.W ; B 2XrX0X",
"( ) H.|.Q.XX^.Z.}._.7X,X} { }.wX<XE t   s O.@.c.M.lXMXMXBXzXzXbXbXBXBXDXDXDXzXM.gXgX(.V.V.J./ ` D | Y a.D n n h.d.P.$Xk k.eXj.g.",
"|.~ E.`.C.|.|.] ] ~.LX}.[ l.5XwX>X].Z   i @.&.c.M.cXAXAXBXzXbXnXzXzXDXFXFXNXMXB.vXfX(.~ W.( n D D / d.$XD n w *Xa.q 8XW x HXj.x ",
"7X/ E.'.] XX|.] [ ^.yX5X~ } qXGXj.wXa.+ i O.5.m.kXvXAXAXzXbXbXbXzXbXnXnXCXAXcXvXjXxXaX` ( J.D n D D Z &X! 5 n *Xp.7 $Xp.z wXj.x ",
"tXu.H.|.` ^.'./ ` l.GX4X^.| |.uXeXuXl.* i %.&.3.N.vXcXAXcXbXbXB.zXzXAXAXAXAXzXN.m.dXn.~ V.( D n n n t @Xi.5 w '.Y.- @Xa.q 0XrXg.",
"9Xu.R R.u.H.E.( ( J.tXuXE.E ( ].1X%XI u i @.&.3.F.nXJXJXFXAXBXcXBXDXJXJXJXAXcXN.v.b.sX| ( V.D n n r 3 t.y.7 3 u.$Xk K.R ; 9.eX8X",
"#XR C J.i.J.( D S i.E.E.( ) A I P.].z = a @.%.M.1.=.D.fXSXJXFXAXDXDXZXdXD.=.D.1.gXdXxX .( W.M ^ M y w W.p.n 3 e w.q.7.7 X 1 k x ",
"_.~ ` / C.J.} [ } C.~.|.|.[ ' }.wXwXl.- i @.+.i ) _ _ *.<.AXDXcXDXxX1.$._ =.=._ pXgXgX] ! ~. X2XE n M R.,X^ w t h Y I 6 > - 0 d ",
"h.~ ~ ' Q.J.} } | |.7X_.3X_.' E.5X2X_ ; ) o.p =.dXvXvXjX<.kXcXBXMXzXM.M.vXZXVXvXD.pXKXJ.A aX<Xu.D C w Y +Xa.h 7 w I V U h > g q ",
"Y.Y E ~ / I.i.~ | |.,X( 7X|.E S j.eXn.a p _ *.vX3.;.#.:.-.M.zXFXDXlX>.#._ v #.jXCXdXKXXX=.jX].i.n t M P.LX>Xd e M 0.6 N E % 3 0 ",
"5XY R E ' J.i.~ E |.<X( '.,X( E x.eXhX+.p *.jXO.m _ _ *.:.3.F.bXbXvX1.1.*.*.$.#.N.dXPXUXdXSXwXY.M w t p.0X2Xl 7 G U 7 j 7.1 % 6 ",
"2Xk.H W E i.a.E S E.3X/ !.,X( I h.wXhX+.X.:.c.-.M.cXcXvXkX4.3.bXzX3.nXkXkXBXmXnXlXxXKXKXb.kXGX#Xl w 7 8 :X9XG 1 M 0.7 g 7.> 3 % ",
"eXq.B E V q.p.I A u.,XR.#XR.A R '.1XhX,.v #.M.zXkXkXcXkX,.,.N.zXbXN.F.nXzXF.nXcXzXNXgXGXdXG.GX,Xh w q 7 j.eXH - 0 0.j g G 6 % h ",
"qXj.T Z R u.P.! H A p.U.P.^ V V k.f.n.&.+.%.;.nXDXcXzXkX4.4.4.zXkXM.kXbXnXbXnXZXBXlXfXhXxX<.}.1XH w - 8 j.wXY.g 6 B G N g 1 % d ",
"eX8Xe.H A ! 0.^ T A V ! e.A B H ^ %X).&.+.%.:.kXCXcXnXF.&.;.F.nXzXkX4.kXnXDXDXFXNXlXv.hXkXdXR.qXh.k 7 H $X2XOXG 6 % g g , % - K ",
":Xf.U H B q.#X! H V I P.#X! V H Y d.:XaX$.#.M.cXDXDXkX,.;.3.nXCXDX3.kXN.3.cXFXFXDXB.dXfXDXhXT.,XU.j 6 7 L e.U q 6 0 k d j 8 , +X",
"2X%Xz B ^ U.9XP.B H T ! K.0.B H N q.&XaX;.%.M.lXCXkX-.;.F.3.kXFXcXkX3.zXkXF.DXDXMXM.n.NXDX .G 0.B 0 7 q w.U w.7.6 g N > H j , #X",
"0X1XT H T 7.1XT.G I H N P.t.B B k U =X/.#.>.c.zXcX<.<.kX;.%.<.kXkX3.m.cXDXkXm.BXzXM.dX=.n.l ! OXY 8 2 h K.9 U L.q d G % f z , Y.",
"rX-X7.G G N R.=XF H T G d.d.N G H T =XK.H %.&.M.M.c.kX3.<.3.jXS.zXvXvXvXAXFXM.,.zXM.pXY f f G P.r.e % M K.N g K.g 9 L 7 8 z 1 d.",
"+X9X9.G T G P.4XY G G Y L.K.U H N r.T.OX9.$.,.c.,.3.F.S.F.vXxXjXvXDXvXF.S.F.vX<.M.M.).9.k 0 e r.t.e 6 0 K.G 9 s.N 6 J f 9 N % j ",
"d.qXd.L G U K.3XP.U H U r.L.7.T H U y.w.z _ 5.4.3.3.o.+.;.<.F.F.kXF.F.4.2.a bXM.,.3. .x G 0 e 0.L.0 6 0 s.r.G r.d > f j j < > X ",
"#XqX*Xt.N 9.@X#Xs.7.G K y.L.U N z 7.@X#X6.W %.,.3.c.a 1.VXsXZXFXFXSXJXCX2.vXzXM.5.<.E P z 0 0 U OXT 6 % z 7.8.G > , X f g.k X > ",
"T.@XK.0.F U K.*X&Xr.z 0.T.3Xt.F F 9.P.*XU z _ %.c.jXVX_ dXSXIXIXIXSXSXS.F.cXzX<.5.z.H F k 0 g q.L.U 8 8 7 j f.9., > j oXeXe.X X ",
"d.K.OXr.F p.3XoX3X1X6.U t.-Xt.G F F 0.&Xy.G W +.-.M.vXS.S.VXSXJXZXZXvXvXAXxXjX:.M.| z z g 0 9 j g 0 6 > g oXwX+Xc X x $XeXj.1 1 ",
"$Xr.K.-XU h.iXw.I.9Xw.z U =XU.F T F U ;XL.F z X.#.:.jXjXF.vXVXZXCXCXZXxXvXAXjX,.b.l c f f q d g U g % 8 j f.0X=Xk 1 1 z 8X+X< < ",
"&Xr.w.*Xe.h.9Xg.U.eXe.J U @X%XK H F 7.@XT.Y x X._ :.1.jXF.vXcXvXvXkXvXcXcXMXv.:.b.W f f f 0 d g K G , , 6 f +X8Xk < 1 c >X+Xc X ",
"-Xr.! -Xg.r.qXs.s.0Xd.J U T.3Xw.K L w.OX@X0.J O.o.+.<.<.jXvX<.sX3.jXcXcXDXxXn.=.4.S f k f q 8 9 N G > 8 0 , h.eXx X 1 c +X0Xx 1 ",
"*XU.7.&Xs.7.:X8X@X8X8.L w.OX$Xr.L K 6.g.@X7.z _ +.v #.jXxXkXkXzXbXcXcXDXAXb.*.b.c.W f c f f f 8 N F % 0 8 , h.uXh.c X 6.8X0XoXf ",
"K.=XK.OXr.L t.@X&Xf.x T U r.L.0.G x e.0X9Xw.z O.%.O.X.>.xXDXCXnXnXCXDXDXjX#.%.jX>.Z f f f 9 9 < g 6.f > 7 J $X2X$Xx 1 j 8.9.k X ",
"7.d.oXw.K P L g.&XK.6.P 7.@XiXg.F L f.*XeXg.x _ %.-.O.o.-.jXzXlXxXlXjX<.+.%.c.lXM.l f f f 9 d f N G 0 < , f 7.8.x < X 1 1 X 1 X ",
"K 8.OXK.7.L 8.$XuX+X6.L 7.s.3XK.P J K s.iXU.z X.%.,.-.O.o.o.o.o.a a X.+.#.c.zXjXc.| z j z f d 8 9 8 > 8 8 < G z x z > > > > > > ",
"6.U.9X=X6.L 8.f.2X8X8.J L U ,X@XJ L z H W s i v %.,.b.>.#.+.o.v X.O.#.c.M.lXlXsXb.hX XW f g 0 9 d j 8 > , f 8.9 z 8.< X , 1 > 1 ",
"6.8.R.8X8.J 6.L #X8X8.J P P @X&XL f     ; +.+.v -.<.v.<.:.M.lXv.M.lXzXlXM.lXlXlXb.n.hXgX=.- 6 7 d j 8 6 < g w.d q 8.c X X X > , ",
"6.6.P.9Xw.L 9.x %X0Xw.6.L 9.R.I.1     X - #.X.X.#.v.jX<.:.jXMXxXMXDXDXlXdXxXlXc.n.n.aXb.xXb O 2 2 0 8 6 > f w.f 9 8.c X > > < , ",
"6.P t.8Xs.L x 6.%XqX+Xw.P J N     O o     v #.X.%.b.sX<.:.:.m.MXBXzXxXlXv.lXB.b.>.n.v.b.v.s O $ 2 $ 8 0 , , 7.L 0 6.< X > X 1 j ",
"6.L d.9X&Xw.L 8.$X-X@XU 6 o .   o &     o : $.X.%.>.c.v.>.>.:.kXzXlXc.,.c.lXv.,.*.b.b.m.*.+ % & % O $ 2 6 0 N H F d > X % d w.$X",
"6.9.h.%XU.w.F 8.8.G >     $ O O o + + & $ . i +.#.>.v.b.>.-.>.,.c.c.M.b.c.lXc.:.>.%.-.sXy + - = $ $ 2 3 2 2 2 0 j T > X f s.+XeX",
"J J 8.g.w.J 9.f X   .   $ # o @ #   + # &   : *.#.*.>.v.c.>.:.%.c.c.c.c.v.M.,.:.b.%.M._ . = *   O O $ 3 2 $ % 2 2 G U % 7.%XJ 8X",
"P 6.8.$XOXU %   . @ O O O + @ = & o o o * o . _ b.#.>.>.v.1.,.c.,.c.c.c.M.c.:.:.>.,.1.: $ + @ o o * 3 $ 3 $ @ * 2 6 0 e r.oXz +X",
"P x 9.s.OX6   + % O   O + & & O o o & * 4 * . y >.v.:.-.:.%.v.v.jXlXv.c.M.v.c.v.v.sXp & o * @ & * = * $ $ $ & * 4 6 7 2 Y -Xd h.",
"L J K 7.h   o o & o O #   o * = & & o & o * o   p aXdX1.v.-.#.>.<.,.:.M.m.v.b.sXxX_ & * @ 3 o # @ * & $ # * $ $ 4 2 2 2 e q.7.%X",
"x F L 1   O . % o O o @ + + & % & & # & o * 3 O # y aXxX1.jX,.,.v.v.c.M.v.v.xXVX_ + - & 3 & $ 3 = 3 * & * & # # $ $ O 3 e 6 P oX",
"J P f   . o o @ +   + + O # & @ + # * = o & * 2 % $ : _ sXlXm.lXv.M.lXzXcXAXaXp % = * = # = * @ $ * # + = = @ * $   * 4 2 2 j f.",
"8.F * . o + # o o + + & * o o = o & * * * = * @ o 3 * o r _ =.aXlXxXcXdX=.m 5 $ * = * * * * * * * * @ $ = * * * & @ & % o * g ,X",
"L f o o O + # + o & # & & o o * o o & & * * * 3 * * 3 * # @ : : r r u = + o o 2 3 * * * * * * * * 3 o & 3 * 3 * * @ + # * * 6 ! ",
"F ,   @ O o - # & & & & & o # * & o o & 3 * * * * @ @ 3 3 * * 3 % $ * = = = 3 = * 3 * * * 3 @ * 3 * # * = = 3 @ % = + & 3 4 $ 0 ",
"N % + * +   & @ & * & * * & + & * + o # * * * * - * * * 3 $ 2 $ 5 3 4 3 5 4 = = * * & $ * * * * 3 * o & 3 * * * % @ @ & 3 3 3 2 ",
"g O + o + o o = * * * * = & o & * + o + & * * * # = = & = = = * @ * * 4 - * $ $ * * * * * * = * = * o & * * * * # & @ * $ o 3 2 ",
"9 o + O @ o o = - * & & * - o o * & o & # & & & = $ $ & & & - ; % - $ # * = 3 3 * * * * * 3 * * * * o * 3 * * & & + * 3 2 + - * ",
"g   # o @ & O & + & & & * & o   & & o o o & & & $ + * = = * @ * + & o * = 3 @ @ * = * * * = 3 * 4 * o o 3 # * & & o * = 3 @ $ $ ",
"k   O O @ # o o & & o o & & + o + * & o o & & o @ & * $ $ $ 3 3 @ & * & 3 * # # = * * * 3 * * * * * o * = * & & + o 3 * @ + & $ "
};
