/* XPM */
static char *db3f8bc2fdc0497e8c5cd523108d5fcckFx7gTyFFlitb09u[] = {
/* columns rows colors chars-per-pixel */
"64 64 256 2 ",
"   c #030303",
".  c #0B0203",
"X  c #020B04",
"o  c #040C0B",
"O  c #0A080A",
"+  c #14090C",
"@  c #02140C",
"#  c #021A0D",
"$  c #051407",
"%  c #16130C",
"&  c #090A13",
"*  c #130D14",
"=  c #0B1414",
"-  c #021D13",
";  c #091817",
":  c #151618",
">  c #251818",
",  c #301816",
"<  c #00260A",
"1  c #022414",
"2  c #022B1B",
"3  c #052618",
"4  c #02361A",
"5  c #13281A",
"6  c #121523",
"7  c #291B28",
"8  c #082824",
"9  c #182628",
"0  c #063826",
"q  c #15352B",
"w  c #173833",
"e  c #112F33",
"r  c #24262A",
"t  c #2B2F35",
"y  c #3C201C",
"u  c #50312F",
"i  c #6C3938",
"p  c #004D1B",
"a  c #024B2C",
"s  c #034528",
"d  c #01562B",
"f  c #084933",
"g  c #18473A",
"h  c #015534",
"j  c #015B34",
"k  c #025C3A",
"l  c #0A5839",
"z  c #14573B",
"x  c #124D29",
"c  c #2E5039",
"v  c #02643C",
"b  c #036738",
"n  c #017234",
"m  c #6F433C",
"M  c #5E4035",
"N  c #0F3253",
"B  c #1F3559",
"V  c #553C45",
"C  c #175A46",
"Z  c #0E5643",
"A  c #245649",
"S  c #295D53",
"D  c #334C4D",
"F  c #086845",
"G  c #156549",
"H  c #047649",
"J  c #077A54",
"K  c #187A59",
"L  c #186D4F",
"P  c #286656",
"I  c #2C6A57",
"U  c #147369",
"Y  c #376763",
"T  c #267B63",
"R  c #38766A",
"E  c #367271",
"W  c #1C536C",
"Q  c #4A5051",
"!  c #784A46",
"~  c #6F504D",
"^  c #77665D",
"/  c #4D5768",
"(  c #476768",
")  c #517274",
"_  c #666F78",
"`  c #53645E",
"'  c #885856",
"]  c #975858",
"[  c #8D504B",
"{  c #A55A57",
"}  c #95635C",
"|  c #AD6858",
" . c #885A64",
".. c #AE5D62",
"X. c #9A6967",
"o. c #927171",
"O. c #A86965",
"+. c #B56B68",
"@. c #A9746A",
"#. c #B7756B",
"$. c #AA7874",
"%. c #B97A76",
"&. c #AD6E77",
"*. c #C57B77",
"=. c #C6726D",
"-. c #C85866",
";. c #058757",
":. c #168559",
">. c #05945A",
",. c #088D50",
"<. c #079967",
"1. c #159969",
"2. c #12936B",
"3. c #36977A",
"4. c #2B8F70",
"5. c #05A268",
"6. c #0BA877",
"7. c #18AA79",
"8. c #12B274",
"9. c #27B879",
"0. c #2AA975",
"q. c #23855B",
"w. c #4A8778",
"e. c #41A17C",
"r. c #17C677",
"t. c #B7867B",
"y. c #AC837C",
"u. c #8D877E",
"i. c #C7857A",
"p. c #D1877A",
"a. c #0B4D8C",
"s. c #295990",
"d. c #2C689B",
"f. c #0F55AA",
"g. c #146DB7",
"h. c #2971B2",
"j. c #086283",
"k. c #4C738F",
"l. c #69778B",
"z. c #4F6EA2",
"x. c #1677C9",
"c. c #1579D4",
"v. c #0E72CB",
"b. c #2B7ACA",
"n. c #297EE8",
"m. c #497DC1",
"M. c #0D3E83",
"N. c #A77A89",
"B. c #C77E82",
"V. c #E27E88",
"C. c #15B884",
"Z. c #2BB886",
"A. c #34B089",
"S. c #288CA9",
"D. c #509489",
"F. c #69888C",
"G. c #4AAE8E",
"H. c #65AF99",
"J. c #708FB3",
"K. c #5EA7AD",
"L. c #18C48A",
"P. c #18CC90",
"I. c #27C688",
"U. c #39C998",
"Y. c #37D69A",
"T. c #2DCD90",
"R. c #30E39C",
"E. c #34DAA5",
"W. c #39E7A7",
"Q. c #1CCDA1",
"!. c #45C79A",
"~. c #4ED09B",
"^. c #4AE29A",
"/. c #49DAA7",
"(. c #54D1A9",
"). c #6AD8B0",
"_. c #57E5B4",
"`. c #50EBAD",
"'. c #67E7B7",
"]. c #76E6BB",
"[. c #71F2B4",
"{. c #63D49E",
"}. c #1985D9",
"|. c #1089D0",
" X c #2587D8",
".X c #2895DC",
"XX c #3694DA",
"oX c #378DD0",
"OX c #1887E4",
"+X c #1792EB",
"@X c #268CE6",
"#X c #2897E8",
"$X c #3699E8",
"%X c #2F98F2",
"&X c #34A7F7",
"*X c #2EA9EC",
"=X c #21A1E0",
"-X c #4888C7",
";X c #4F95D5",
":X c #6E97CD",
">X c #54A6D4",
",X c #70A7D0",
"<X c #4999EC",
"1X c #47A6EE",
"2X c #6BA8EB",
"3X c #74F1C4",
"4X c #79CCDC",
"5X c #2EC4E5",
"6X c #A98585",
"7X c #B88885",
"8X c #B4948F",
"9X c #8C93AE",
"0X c #A99BAC",
"qX c #B0A7B9",
"wX c #9B9BA0",
"eX c #C88886",
"rX c #D48B89",
"tX c #C7928B",
"yX c #D8938B",
"uX c #D78D93",
"iX c #C99694",
"pX c #D89797",
"aX c #C48E93",
"sX c #E29A99",
"dX c #E28B8B",
"fX c #D2A299",
"gX c #D19BA2",
"hX c #DCA4A7",
"jX c #D1A8AE",
"kX c #E4A5A8",
"lX c #EBADB5",
"zX c #E4A09B",
"xX c #8C9ACB",
"cX c #8FACD2",
"vX c #A7ABC6",
"bX c #B9B6C8",
"nX c #B9B8D6",
"mX c #AEAFCC",
"MX c #93B5E5",
"NX c #AFBCE8",
"BX c #C3BBD6",
"VX c #C7B5CD",
"CX c #D2BAE2",
"ZX c #98CAD6",
"AX c #BAC7D6",
"SX c #B9C7E6",
"DX c #AFD0EB",
"FX c #90D3E2",
"GX c #C7C5D9",
"HX c #CFCCD7",
"JX c #CACAE8",
"KX c #D3CCE7",
"LX c #D6D4E9",
"PX c #CBD1EB",
"IX c #E7D8ED",
"UX c #E3DCED",
/* pixels */
"Y E D.[.{.R Q / D D D.E.A t t t g e.[.[.9.g 8 e e e g 6 6 9 9 g C U e 7 9 8 t N A.T 7 - 7 A E.L O L.>.+ # F 9.9.n < +   & # ,.r.",
"Q Q ` ).[.w.Q Q Q V E _.4.D t N P E.~.9.I r 7 9 9 J 2.w > q e 9 w L Z 7 r t 7 7 C.7.6 r 6 & 0.P.1.6.w O ;   2 4 x 4 # + @ 0 ,.I.",
"/ / ` H.3XH.( / D D E (.(.E D t D C K 1.;.w r 7 g J 2.g 7 6 6 w g C C r r r t r T U.A r 9 6 9 K K H - @ = & w f < F s $ < x ,.W.",
"D._ _ D.).H.) ( / k.D.G.A.4.P D t S I.!.Y.q.q w w w w - ; : * ; A C e 8 S A N t 3.E.A.I e 8 6 7 a H l Z 8 @ 0 8 4 5.v b 9.,.b >.",
"H.F._ ) F.w._ / _ Y I G.(.).'.4.A T U.U.3XZ.0 9 6 : : . : : 6 : 8 - @ 8 e w w t T 4.4.G r 9 8 q F f 8 L k 5 @ . 0 T.b n [.9.X . ",
"H.) _ _ _ _ l.) / ( w.).(.G.].^.I g A 4.[.q.X . * o & * : ; = * . & 6 & & e = D w T (.Z.w : 9 w K g % l H 1 @ ; - r.,.n [.0.$ + ",
"H._ F.l.l.F.H.k.( / w.].{.q.H.[.0.g g F k + . o o & ; $ % * : * 6 * 6 @   9 6 8 P !.'.~.A : q q J v ; 0 J q ; @ o J I.9.`.H X . ",
"F._ l.l.F.K.K.w.) / w.[.{.q.0.FX!.C t : . . . o & . % O o O * : @ : * * = @ 9 ; Z 0.!.'.L q 9 r L F 3 5 H f - = X ;.R.r.,.X o O ",
"H._ _ k.l.l.K.D./ ( R ).'.w.q.[.^.C 7   X O o + : + + * : : = > * : O : & 6 ; : ; w 4.3X4.5 q 9 l :.0 - L h X : s ;.,.b s 0 O   ",
").D._ l._ ) D.G.) ( I H.3XG.:.'.{.g &   X O o + O O : % : : % % > > X $ 3 0 @   O 8 K /.T.q q q q H F x l 2 = 1 5 a 5.n s F s X ",
").w.) ) ) ) w.!.) Y Y 3.'.].G.'.e.5   X O & % > : % + > + y y m [ ! m m u u # $ o * A A._.l x t > 0 j f 0 - = # < 0.Y.d   a H $ ",
"].H.) ) ) ( k.G.D.I Y Y 3.{.`.~.L o & = . > u y y y + y u i [ | -.| | | { ' u % o   3 G.'.I.8.g 8 6 3 s 0 q 1 O p W.0.< . 2 H 4 ",
"].{.R ` ( ) ) A.A.w.Y S Y q.9.U.f . = = , u ! m i m i m ] t.=.| =.| | | | y.o.,   : ; T Z.J j 0 8 9 w a 0 z s = d ^.9.d %   b d ",
"].).e.( E ) E D.A.4.T S D 4./.!.q   O = , m { ] { #.#.i.p.p.p.p.p.p.p.p.| t.8X` O ; 9 e C j K q 3 3 F s 3 s v < p ^.Y.H ; . z a ",
"[.FX'.D.Y S T D.G.K.A.S P G._.:.5     : u { { | i.yXyXdXyXp.p.p.p.p.p.p.p.t.t.u.9 @ = ; Z h <.5.q - k a % 2 b 0 % G.'.>.s @ j s ",
"~.~.0.q./ Y A.).~.).).A.P A.'.q.: . . % i { | #.tXyXyXyXdXyXzXyXp.zXkXzXyXt.t.8Xu 8 6 6 l & Z C.l 3 f k 3 1 j d # n `.1.d s 0 O ",
"R 0.A.S S Y G.3X4.3.3X!.I A.3XC.= o & 5 m ..+.p.uXaXpXrXpXyXyXyXyXzXpXuXpXrXi.8X/ 9 = 0 C ; 0 6.;.: 0 F 0 < f a # 2 7.H X 0 a e ",
"0.(.U.S S S D._.3.P !.`.U 4.3XA.0   % > i { +.t.eXuXtXsXsXyXsXsXsXpXfXpXiXsXp.8X_ 8 * C :.; - ;.>.3 2 b s $ a 0 = O 2 O - H <.6.",
"T A.A.P A A E /.4.Z D.E.K g A.U.h   . % [ | +.rXgXgXhXkXsXsXsXpXkXkXhXlXhXeXeX7Xo.% = G ;.- ; F J 1 ; 5 z 0 2 $ # $ # O k ;.2 H ",
") E (.D.( E ) (.(.Y 4.).A.A 4.`.U.8   > [ X.X.X.6X6X8XgXlXlXkXlXhXjX0XN.6X&.X.wXo.: 6 Z 6.Z 0 J ;.3 5 2 0 s b p > @ 2 @ 5.8.  f ",
"( E (.!.E E E (.].A.3.3XA.S I 4.!.Z   u } [ ! X. . . .o.aXpXfXkXpX7X&.' o.N.o.6XwX5 5 0 K J K :.k 5 3 2 4 L ^.:.# - 1 O 2.P.= - ",
"Y Y G.K.E Y S w._.(.!.!.T I D C S f   i } } 6XgXhXkX7XeXi.rXzXyXi.t.eXzXlXlXpX6XwXt 1 9 8 s Z H h 1 5 ; H ^.[.9.4 @ 3 X L Q.0   ",
"Y S 4.(.D.R Y S 4.G.A.1.L A A C <.q.@ u O.%.%.7X7XN.tXi.%.p.zXzXp.%.%.&.N.N.rXaXwXD $ c q $ H `.9.4 2 1 K 9.T.^.j X 1 @ 0 E.J . ",
"S P A.W.A.4.L S C T U.U.U.T Z G R _ % u N.%.{ ! ~ , o.$.t.i.uXsXrX#.N.u u X.[ eXiXP ~ B.` d Y.].~.d < 3 4 2 9.`.H $ - $ o 1.P.v ",
"Z P 4.C.R C S C P A.!.C._.!.Z C { -.! M B.B.@.X.B.X.eX&.+.i.i.rXyX%.#.O.%.eX&.i.fX^ %.V...L 5.I._.n < 3 5 < ,.`.0.< 1 1   2 <.>.",
"P A Z U A.U C G L (.Z.g A._.K D +.i.%.! *.eX7XpXaXuX%.+.*.*.*.rXeXi.i.eXiXtXpXeXfXw.8XeX*.r 2 q.[.0.4 < 2 % b ^.9.d = & = . O 1 ",
"C C U Z.E.2.Z C L !.U.G J `.9.Q =.t.O.[ $.eX8XuXpXuXeXeX#.%.uXB.i.rXuXeXyXiXiXhX0Xy.#.*.#.5 0 n `.9.4 1 2 # b {.[.r.n @ O X @ j ",
"C k U :.Z.Z.C z F Z./.;.G ^.Z.P ..O.{ O.O.eXpXuXrXtXrX*.%.*.uXpXi.i.rXuXpXuXaXpX0Xt.| p.X.- 1 s !.^.H 0 : 4 5.R.9.:.x $ o o 0 J ",
"z Z F h 1.U.F G z 4.`.2.Z U.U.F %.-.+.} O.%.eXuXpXpX*.#.eXrXsXlXpXyX*.eXsXuXpXuX8Xy.i.rXQ ; 9 d U.[.Y.,.3 - f d p $ o * o   @ ; ",
"k v G g :.T.;.Z Z F Y./.6.A.0.l ^ -.+.' O.%.B.uXkXkXO.%.{ [ aXB.] #.=.i.lXlXeXeXwXy.=.$.9 # 4 ;.P.9.:.s - 1 $ # $ 1 2 o o o o . ",
"F v k C F Q.7.Z F l :.T.Q.Z.H a c $.$.X.} #.eXiXkXhXpXeX&.eXB.gXB.B.zXkXhXkXuXi.y.yXt.D 2 2 < f h v b d 2 1 - 1 3 < @ # # o o = ",
"z z v k L C.Q.2.F j l v L J F h d c X.] ] +.7XeXhXhXhXpXuXhXkXkXkXuXhXkXpXpXrX*.y.^ D q 2 # 1 0 v l d ;.a = 1 = # 3 3 -   o @ X ",
"F v v b :.C.6.;.G j k Z ;.Q.<.h j h b z ] O.=.i.iXkXgXuXuXuXuXdXuXuXuXpXpXrXi.=.u.4 4 5 2 1 1 4 ;.a 1 H H 1 1 - 1 - 1 3 X # o @ ",
"C.H b G L J 6.2.v v k G 4.L.6.Z x d h f ~ @.#.#.aXeX] ] ..&.-...=...] +.tXyX*.#.o.s f 0 2 ; 2 4 ;.v ; s >.0 @ # @ 3 1 4 2 O O   ",
";.H v l F C._.U.b b l F F <.L.L h k j l c @.#.%.eX*.] ] ..B.V.uXV.*...#.p.rXi.i.` < 0 f 0 - 3 2 H H 1 4 ;.x # 1 ; # 5 3 # @ # $ ",
":.F v j ;.T./._.>.j k h f J Q.J h j j x z O.O.%.eXuXB.B.B.B.-.B.B.B.B.eXyXi.#.#.` < 4 0 8 3 3 3 F ;.4 1 H l $ $ 1 ; @ a L 1 X # ",
"Y.H Z v H ;.<._.8.b b v Z F C.6.j h h h H  .| | t.i.t.iXuXtXB.B.eXyXp.i.i.#.#.t.D 1 4 f 8 @ 2 8 4 >.F 0 F a   5 - 3 k I.W.b $ $ ",
"W.>.l k v k :.`.9.b l v j k 6.P.;.v l h H ^ X.O.#.#.#.i.iXpXpXsXkXfXp.t.t.@.@.@.( 0 2 4 0 - 2 8 5 s F k s # 1 # ; H 6.~.`.,.$ % ",
"/.7.b b b v H T./.;.v j j F 8.L.<.b b f b ^ } } | +.$.eXuXzXpXzXhXpXtXi.i.@.X.@.D.W 8 < f 0 4 3 1 1 4 l F k 2 $ < I.>.b ^.0.< $ ",
"E.A.H b v b j Z._.I.;.h l F >.5.<.v d d F ) X.' | O.@.#.t.pXpXpXkXiXi.#.| } | y.s.g.U 2 0 8 < 8 3 1 h 2.>.C.J @ 0 P.:.< ~.^.p # ",
"Z./.J k k v >.Y./.T.5.b x j ,.Y.Y.n p j U s.+.] ] ] O.#.+.#.%.rXrXeXt.O.} } $.t.D W @Xf 3 e 0 2 8 = <.<.@ <.P.0 1 Z.6.# 1.`.n $ ",
"2./.C.>.F v J <.6.<.H j j H T.)._.5.d W g.B | @.^ ! ' X.@.+.+.#.%.%.@.] ' @.t.i.t N v.S.F ;.v 3 < 4 1.6.; 0 P.H   7.R.1 H [.9.b ",
"C.Y.C.>.b b k J 5.6.C.J f n 8.Z._.9.d U f.7 #.t.o.' ! ~ [  .} ] ' [ ! ' @.7XtXt.y N x.=XU J ,.4 : 3 <.C.2 1 C.<.X b R.H >.[.^.8.",
";.<.5.;.l z F 6.5.F 6.L.v d b ,.`.T.,.g.j.> X.6XB.X.~ ~ i u u u u i ^ X.t.7XtXtXu 8 g.c.XXK.C.0 # @ F P.d $ ;.6.% 1 ;.J >.8.>.,.",
"H Z.`.5.j z b 9.5.a >.L.H k d n !.E.d.c.a.; X.t.t.#.X.' ~ u u u ! ' @.y.7XiXtXeXu N x.b.*X5X>XD.g X 8 L.6.- :.<.# $ 1 5 d r.T.^.",
"6.Y._.9.n F b 8.7.h v C.1.s k P S.S.x.c.f.6 X.tX7Xy.$.o.' ' ' ] X.@.y.7XtXpXiX7Xu M.}.}.=X5X1X*X>XE = d C.2.;.h % < # # >.`.1.9.",
",.>.Y.Y.J h j 5.r.F N C.6.S z.g.g.v.v.x.c.N ~ 8X7X6Xy.@.} } } } $.y.7XiXiXiX8XiXt g.%X.X.X*X5X=Xb.;XS.I f H ;.n < < % < 9.^.p :.",
"b b Z.`.,.b l H Q.>.d C.G.h.h.f.v.f.v.@X@Xd.V 8XaXaXaXt.$.$.y.6X6X7XtXtXfXfX8X7X9 <X#X.X@X*X5X*X,Xz.;XFXK.A.T.E.9.p $ < 9.`.d p ",
"b j 1.`.6.j z k <.7.D.-Xb.h.m.h.g.c.c. X#X#XB y.8X8XgX8Xy.y.7XtX8Xt.iXfXfXfXiXX.W XX#X<X*X+X*X*X>XbX0XvXFX4XFX4X^.,.= # 1._.>.4 ",
"d j H /.Y.<.b p P K.-X-X:X9XvX-Xv.v.c.}..X%Xa.~ iXaXaXfX7X7X$.$.t.8XiXjXiXuXjX! s.%X&X$X%X=X=X*X,XbXvXnXSXZXZXZX4X(.4 X h /.9.p ",
"j n >./.W.r.:.l.:XJ.9XbXnXvXBX-Xv.v.c.}. X%X XD t.8XfXiXiX8Xt.8Xi.tXfX8XjXlXN.t oX%X%X$X%X%XXX#XNXmXAXGXJXHXAXAXFXFXD.; < 9.`.9.",
"j b 8.8.1.D.J.xX,XvXmXnXCXVXAX<XOXg.v.}. X#X&Xs.% ^ u.fXjXkXfXjXfXlXhXgXwX~   D XX#X$X*X*X*X#X=XoXf.:XcX:X1X2XNXAXnXPX).q < r.R.",
"z h b j w.9XvXmXCXbXJXSXLXLXGX$X#X}.v.x.}.#X&X.XN   + t ~  .o.o.u.^ M 7 & . o z.$X$X1X$X$X$X1X+Xc.a.g.v.v.c.v.|.,XGXDXDXvXc < d ",
"f d l l.xXvXAXIXcX,X:X,XSX,Xm.b.&X#Xv.v.}.+X#X&X-X& + &       o     X O 6 O N ;X%X*X$X&X$X1X1XOXg.f.g.x.v.v.c.}.x.;XZXJXDXZXx ,.",
"b p _ cXmXVXHX:Xc.|.OXv.OX+Xf.h.&X#XOXc.x. X#X%X&Xz.+ * 6 6 ; ; 6 * = 6 & & d.$X&X*X1X&X1X*X$X|.b.s.b.@Xg.oX;XOXg.|.|.,XAXDXZXr.",
"d Y mXqXHXNX;Xv.g.OXOXv.n.c.a.f.&X$X+XOXx.b.#X$X+X,X_ O 6 & : & : * 6 =   k.<XOX#XoX-Xb.f.s.s.d.:Xs.z.:Xm.:X:X:Xb.v.}.|.>XHX,Xd.",
"h 9XVXmXMXc.OX}.f.b.;X}.+XXXa.s.%X&X$X.X}.c.}.%X%X$XMXo.6 & % * & : * O _ ,Xm.n._ l.N.l.N.9X9X9X0XJ.9XcX:XcXvXxXm.h.}. Xx.x.|.|.",
"( mXVXvXh.@Xc.+Xs.z.cX:X:X:Xs.s.XX@X%X%X+X|.c.c. Xx.:XJXxX/ 6 o : 6 & Q cX:X2X>XmXvXNXSXJXnXVXnXSX0XmXjXvXmXqX0XJ.-X;X}.x.;X>X>X",
"wXPXNXoXv. X+X;X-Xz.NXxXcXvX9Xl.9X:X,X;Xb.z.k.9XxXqXJ.9XVXNX-XN + O 7 qXBXMX:XcXbXBXJXKXLXPXJXPXPXmXbXKXVXBXvXwX9XxX:X;XJ.:XJ.,X",
"nXNXoX}.}.|.:X:X9Xl.GXbXBXBXbXVXVXmXbXKXHXVXBXIXLXGXBXl.cXz.b.x.W & wXKXBXnXBXnXbXGXLXLXUXLXPXKXKXnXcXUXJXGXKX9XwXnXxX:X:XbXqXqX",
"bXvXoX@X|.-XxX2XmX0XKXBXLXKXJXKXKXPXSXPXUXUXGXGXIXHXAXSXNX;Xv.b.v.l.IXDX;X:X:XJ.:X,XMXMXNXMXSXPXJXcX0XJXLXGXKXvXAXqX9XqXbXqXqXmX",
"b.:XmX;X;X,X,XVXnXnXKXKXIXLXLXLXLXJXKXJXJXPXNXMX2X<X@XS.$X<XFXDX:XDXMXb.x.c.v.OX@XOX%X=X}.c.$X$X%Xb.d.$X2X-X;X0XLXJ.vXbXVXVXnXBX",
"g.v.x.;XxXcXBXbXvXNXDXPXPXnXSXJXDXMX;XoX#X#X}.x.OX=X@X X}. XPXIXJ.h.x.x. XOX+X%X#X X@X#X%X@X}.}.+Xc.B +X X}.oXbXJX9XVXHXHXVXBXnX",
"x.x.v.g.oXxXbXGXVXcX-X;X1X%X@X<X.Xc.OX@X#X#X#Xc.@X X X#X@X}.MXbX Xc. XXX#X+X@XXXXX.X.X}.@X@X}.@XXX|.B #X@X}.}.cXqXKXKXPXJXnXAXbX"
};
