/* XPM */
static char *_daed27aac9b4bc3e9ad161e5ff1bc43kkOTbk3DSZIKIV8k[] = {
/* columns rows colors chars-per-pixel */
"64 64 256 2 ",
"   c #0B090C",
".  c #15090C",
"X  c #0C0D11",
"o  c #160E13",
"O  c #0E1316",
"+  c #151418",
"@  c #0C130C",
"#  c #261415",
"$  c #151D22",
"%  c #12302E",
"&  c #372727",
"*  c #302F37",
"=  c #10271C",
"-  c #462A2B",
";  c #523434",
":  c #673B37",
">  c #6E3432",
",  c #4F1D16",
"<  c #024A2A",
"1  c #03542D",
"2  c #164839",
"3  c #035534",
"4  c #015A34",
"5  c #025C3B",
"6  c #09583A",
"7  c #13563C",
"8  c #0C4A33",
"9  c #01633C",
"0  c #016A3D",
"q  c #046338",
"w  c #00713D",
"e  c #2D4A39",
"r  c #6F453C",
"t  c #52453F",
"y  c #3B394B",
"u  c #333A4A",
"i  c #0F3A43",
"p  c #42394B",
"a  c #433D52",
"s  c #50394E",
"d  c #6B3E48",
"f  c #085C43",
"g  c #185945",
"h  c #174F4C",
"j  c #255649",
"k  c #295C57",
"l  c #334D4F",
"z  c #036543",
"x  c #026B43",
"c  c #0A6A44",
"v  c #026D4A",
"b  c #0C6B4A",
"n  c #096447",
"m  c #15664A",
"M  c #017244",
"N  c #02744B",
"B  c #017A4C",
"V  c #09754B",
"C  c #066C51",
"Z  c #176A54",
"A  c #037452",
"S  c #027C53",
"D  c #087957",
"F  c #177659",
"G  c #13734E",
"H  c #286759",
"J  c #2D6B56",
"K  c #197965",
"L  c #157062",
"P  c #3A6A64",
"I  c #2A7966",
"U  c #377469",
"Y  c #2F7770",
"T  c #1E5F61",
"R  c #4A465A",
"E  c #4D4A5D",
"W  c #464455",
"Q  c #544B5C",
"!  c #4F4B52",
"~  c #684545",
"^  c #774B47",
"/  c #745552",
"(  c #514E62",
")  c #574F68",
"_  c #555265",
"`  c #5A566A",
"'  c #5C596D",
"]  c #585568",
"[  c #5E5C71",
"{  c #575A77",
"}  c #4B5265",
"|  c #64596B",
" . c #625D72",
".. c #645975",
"X. c #775B65",
"o. c #467A74",
"O. c #536D74",
"+. c #646175",
"@. c #666379",
"#. c #69657A",
"$. c #6B687C",
"%. c #72696F",
"&. c #5D6956",
"*. c #894C49",
"=. c #86544C",
"-. c #8A5955",
";. c #955B56",
":. c #945349",
">. c #A65A57",
",. c #AB4D4B",
"<. c #98645B",
"1. c #8C6457",
"2. c #A7665A",
"3. c #BB775F",
"4. c #9A6964",
"5. c #8F7171",
"6. c #A76966",
"7. c #B46968",
"8. c #A8736A",
"9. c #B5756B",
"0. c #B96C74",
"q. c #AA7875",
"w. c #B77A76",
"e. c #A46D70",
"r. c #995C65",
"t. c #C67B6C",
"y. c #C57A79",
"u. c #C66A73",
"i. c #02844D",
"p. c #028354",
"a. c #02845B",
"s. c #028A5C",
"d. c #098659",
"f. c #14845B",
"g. c #04935C",
"h. c #068A65",
"j. c #158866",
"k. c #069667",
"l. c #14976B",
"z. c #069B75",
"x. c #189876",
"c. c #188573",
"v. c #27866A",
"b. c #288875",
"n. c #378876",
"m. c #27977A",
"M. c #368F77",
"N. c #04A56B",
"B. c #06A778",
"V. c #15A879",
"C. c #06B679",
"Z. c #17B47C",
"A. c #0BAA6F",
"S. c #24AD7C",
"D. c #45877A",
"F. c #4D8D70",
"G. c #06C67B",
"H. c #B9847B",
"J. c #AC887A",
"K. c #8C867C",
"L. c #C78479",
"P. c #D08B7C",
"I. c #567486",
"U. c #687587",
"Y. c #2E7E85",
"T. c #B67E82",
"R. c #987B85",
"E. c #C77B84",
"W. c #EC758D",
"Q. c #1D9A85",
"!. c #399885",
"~. c #2E8F83",
"^. c #18A984",
"/. c #08B887",
"(. c #17B888",
"). c #17BA93",
"_. c #0AB68D",
"`. c #26A887",
"'. c #36A68A",
"]. c #27BA94",
"[. c #36B696",
"{. c #2FB38E",
"}. c #598785",
"|. c #489787",
" X c #54948E",
".X c #6A898D",
"XX c #49A994",
"oX c #4CAC95",
"OX c #55B7A4",
"+X c #6FB1AA",
"@X c #6498A3",
"#X c #16C689",
"$X c #09C795",
"%X c #17C79A",
"&X c #13CD90",
"*X c #26C38A",
"=X c #27C79A",
"-X c #27D69A",
";X c #33CC97",
":X c #1CD4A6",
">X c #38CAA7",
",X c #29D7A7",
"<X c #37D9AA",
"1X c #39DAB2",
"2X c #2AD3AB",
"3X c #38E5AA",
"4X c #38E7B7",
"5X c #32EBB4",
"6X c #1FE4A1",
"7X c #45DAA9",
"8X c #56DAB5",
"9X c #4ACFAD",
"0X c #6ACBB5",
"qX c #46E5AC",
"wX c #49E7B8",
"eX c #58E9B9",
"rX c #51F0B6",
"tX c #64EDBC",
"yX c #43CB9B",
"uX c #3AEFC1",
"iX c #58EDC5",
"pX c #53F2C7",
"aX c #67E9C5",
"sX c #67F5C6",
"dX c #73F3CE",
"fX c #6DDFC3",
"gX c #949090",
"hX c #BA8885",
"jX c #B29290",
"kX c #A89DA2",
"lX c #93AAAC",
"zX c #AFABAD",
"xX c #9BA0A2",
"cX c #C78A86",
"vX c #D48A88",
"bX c #C89389",
"nX c #D6958B",
"mX c #CB9795",
"MX c #D79A97",
"NX c #D28C91",
"BX c #E29A97",
"VX c #E48E8F",
"CX c #DBA29B",
"ZX c #D6A18F",
"AX c #E2A39C",
"SX c #DA9CA4",
"DX c #E19DA4",
"FX c #D9A4A4",
"GX c #D1A9AF",
"HX c #E3A5A5",
"JX c #E7A8AA",
"KX c #E9ADB1",
"LX c #ADBAC4",
"PX c #9AB5C0",
"IX c #9ADFD7",
"UX c #E7D0D3",
/* pixels */
"{.U l l P |.!.'.m.H j g l g m.eX7Xf.6 7 2 f.`.1XuXz.8 3 6 2 6 6 c q 6 6 f 7 f g d.f.7 8 6 7 7 Z.rXdXrXG.V 1 3 x x B z 6 1 1 1 1 ",
"n.H j l k H Q.[.[.Q.H j j m.qXdXdXV.6 8 7 G Z ^.pX^.3 2 8 7 4 7 m m 7 8 7 g 7 g p.j.G m 7 m f.-XtXrX3X*XV 4 7 3 v Z.A.5 < 8 1 x ",
"P l P P P |.9XyX8XwXXXk j V.=XeXsX;X7 7 7 7 8 l.uX=Xf 8 n 6 6 g n G n m m m m G j.v.j.D G n D S.*X-X#Xi.4 6 7 M (.4X4XN 3 7 < z ",
"o.P P } P OXfX|.|.pX8Xv.k I F [.sX7XF 7 7 7 7 F wX<XG h f f m z Z Z m m Z m b G H K Z Z H g m F C.qXqXg.g 9 9 k.$X5XwXh.1 4 3 3 ",
" Xo.O.O.U 9XiX~.P 8XiX'.k l j {.sX8Xj.7 m m g m >XuXh.2 2 % % % % % % % 2 h j J c.).Q.n.Z k J l.qXdXsXZ.9 9 5 A a./.5XA.1 1 3 3 ",
"oXo.F.O.o.0XdXXXP OXdXyXU J H M.aXpXS.g m g f C 1X>X8   O     o + $ $ O $ % % % b.2X4XwXV.G f.(.4XaXsX#XM m n 5 5 V.5X#X9 1 1 4 ",
"OX Xo.O.O.0XdXOXU !.dX9XU J H K wXsX;XK m j F I f = . .     +   X O + + O $ * = % L [.iX9Xv.Z v.z.>XdX-XF 6 0 9 5 l.5X=XN q 4 4 ",
"OX X.X$.}.OXdX0XI.|.fXwXU J J M.eXIXeX=Xj.g f %     o   X   X O O   X X X $ % $ % * T 9XpX`.F Z F ;XdX3Xk.c M n 5 a.,X1XD 5 q q ",
"+XOX.XF.}.@XfXfXoXXXaX9XU P Y [.pX4XwX).I b = X + X   @ @ @ X . X o O o O o $ $ % i % Y pX[.K F F Z.sXiXk.V m 0 9 A :XiX#Xs.x q ",
"+X+X.X X.X}.+XdXeX9X8XXXU U n.M.{.[.`.x.Z h X . @ X X . . o o o X X @ + + o O O * % % i 9X>XH I H V.iXsX(.p.c c N ^.5XwX%Xx.M 4 ",
"OX0X@X.X.X}.|.OX0XOXXXY P U I I `.].[.=X`.$ X O X + # & - ; * & & # . # + + + O + $ i % '.pXI D K Z.eXdXrX*Xd.9 N B./././.k.0 q ",
"OX+X+X@X X}.}.}.|.|.!.|.U P I b.>X).Q.<X`.  X @ & ; t / 1.4.1.^ ^ / r : ; ; - # $ # i % T =XK I x.-XpXiX7X(.S b M k.$X,X3X=Xk.w ",
" X@X+XF. X}.}.}.|.XX'.'.'.U J {.1XQ.Z ].6   - r 1.<.8.9.t.L.H.t.H.L.L.t.9.9.<.r & & $ u T K K L j.^.=X=X_.k.v b B /.wX,X,XpX=Xi.",
"oX0X0X@X.X}.o. XoX|.M.'.{.Y P '.1X'.H m.= # =.2.;.2.2.3.9.t.t.P.L.t.t.L.L.L.9.3.5.kXU.T T Y b.D F x.%X%X,X2Xz.b f.<XpXB.N.pXwXA.",
"0XIXIXOX}.D.o.XXoX|.U |.[.!.I m.4X].F g @ - :.:.2.2.3.L.P.P.vXP.P.P.L.P.P.P.L.3.hXLXUX}.h Y.L D F `.,X).).4X=XS s.7XpXA.s.1XaX#X",
"eXtXdX0X}.}.D.|.[.!.Y n.'.'.I x.1X>Xj.h + ^ :.:.2.9.L.nXZXMXnXnXP.nXP.nXP.P.P.L.T.zXIXPX} Y.Q.L j.:X5Xx.h.2X5Xk.h.4XiXZ.i.:XsX=X",
"|.yXsX0X!.n.n.D.XX'.Y v.[.`.v.I =X5XQ.% & :.:.2.8.L.nXFXFXCXMXAXAXBXAXAXHXHXCXNXL.jXLXzXI.Y ~.f.c.:X4XV.D #XuX^.s.,XsX=Xs.#XpX<X",
"o. XIXtX|.o.o.n.[.'.Y Y {.'.Y F m.2X2Xh & -.<.<.w.L.NXMXJXJXJXFXAXAXAXJXKXKXJXMXP.hXLXLX@XY.Q.h.h.=XpX^.C B.4X].B (.pXwXh./.pX,X",
"o.M.tXsX'.D.o.I '.[.M.n.`.!.I F j.^.%Xj ; =.;.3.J.P.MXDXJXJXFXJXAXAXAXJXJXJXJXCXP.jXjXzXxXI.Q.k.a._.4X=XD /.4X%XB N.5XrX=X,X4X#X",
"U v.0XsXoXv.P o.M.'.S.m.V.x.F F G K (.e : >.>.3.J.P.mXDXHXHXJXJXJXHXHXDXHXHXFXSXZXP.w.kXgXI.~.l.D V.4X2Xh.B.4X_.V s./.qX4X5X%Xk.",
"P n.8XdXrX;Xb.U I v.S.S.Z.S.f.f.F l.6Xe *.,.2.q.E.NXDXJXJXJXJXJXJXJXJXJXKXKXJXSXnXH.H.jXgX..b.B.f.h.:X5X:X%X,XN.c B s.k.#X:XC.p.",
"P !.>XeXeXoXb.F J J A.-XrXyXS.i.J V.oXe *.:.r ^ ! X.5.kXGXGXJXJXJXJXJXKXKXGXGXmXhXbXjXJ.jX.XK h.D B k.(.:X_.B.A V c w N B.,X-Xk.",
"H Y !.'.~.Y H k J f.*X7XqXqXyXl.G J d - ^ ;.- & * & + & s 5.mXSXSXNXT.1./ ~ d : ; / gXJ.jXU.P F.Z g z n D D h.f q 4 4 a.).4X,Xg.",
"U o.D.XX[.|.|.U U XXtXqX;XeXtX;Xl.S.1.; :.=.~ ;.e.e.1.r - : -.T.T.e./ ; & p / X.%.d F.kXgXU.%.0.j.V M m l.=X%XC z q v B.:XuX3XC.",
"J U oXOX>X9X>X!.Y yXsX8X*X7XtXtXZ.F.,.r / ,.:.r ~ t & / -.r.6.hXmXT.4.;.6.-.r.-.8.J.<.zXlX.X6.hXM.F D B.:XiXwXz.M M b g.N.-XpX%X",
"P n.9X[.Y XX9X'.I oXaXeXS.S.tXtXS.F.2.r ^ 2.=., ^ ~ . 5.=.:.0.bXNXNX9.;.4.; . ! , r 7.gXLXgXq.MXoXg.V l.(.1XpXB.c M 0 M S (.eX,X",
"H c.1X[.k ~.wX>Xv.'.tXtXS.S.tXtX;X8.3.*.=.8.;.=.e.4.d e.:.*.6.H.VXL.9.:.-.-.; e.r :.9.xXIXxXr.vXlXG.G d.h./.4X%XV M M x n V.wX5X",
"k ~.1X[.Y Y >X1Xv.m.tXtX;XA.eXtX;X,.7.:.-.8.w.E.6.6.6.;.;.>.2.P.bXL.9.8.r.6.w.T.9.L.L.kXIXlX0.u.lX&Xd.N v z.5X,Xp.0 x M v k.4X4X",
"g n.1X=XK T [.1Xl.v.7XtXqX#XeXtXS.:.;.<.<.9.H.cXNXcXL.w.9.7.7.vXnXy.P.y.cX9.t.y.MXcXnXFXzXlXbX,.xX6Xg.w b l.1X,Xs.x G 0 x k.4XpX",
"k H [.2Xm.Z [.1Xl.F S.eXtXqXrX<XA.1.4.1.<.w.bXMXBXvXNXvX9.7.9.E.VXy.t.L.VXvXnXnXAXAXbXkXLXkX8.6.lX3Xg.i.x a.=XpXx.A 0 9 S (.4XwX",
"Z j Q.1X].c.].=Xv.G j.{.qXqX;X`.S &.8.4.:.w.nXSXAXnXBXL.7.2.9.cXVXw.t.9.P.BXBXVXCXHXmXGXlXhXJ.mX0XqXg.w B k.,XpX,XN.S 0 B N.B./.",
"v g F {.=X].).`.J G m a.l.V.C.g.C J 8.=.-.vXcXCXAXJXy.7.>.2.L.JXHXBX9.7.7.cXBXJXKXJXGXzXxX0.P.J.rXqXg.w p./.:X,X$Xk.C 0 z D h.$X",
"f.m f I c.Q.Q.D Z n F b D V.).B.G Z F F / 9.L.nXAXMX7.0.0.E.w.DXJXMXcXE.7.7.P.JXKXCXZXGX.XK.gX9X5X#XB M V d.g.k.s.M 0 x z a.%X5X",
"f.Z n h D _.).].x.D b G j.^.=X^.N A b V ! 8.w.H.cXNXw.E.0.>.6.6.u.7.6.0.NXy.P.MXHXnXbXkXn.G.&X-XZ.g.M M x N s./.Z.B 0 M b s./.2X",
"l.M f Z `.:X^.2X>Xx.C G K h.)._.A S b N m 2.2.3.y.9.w.q.4.4.r.-.r.4.q.q.w.NXw.9.vXt.t.xXZ B k.B.k.B 0 V M a.z.&X%Xh.x 0 x N S B.",
";Xg.x K >X%XA ^.uX].A v A A x._.d.D D V w ;.2.2.<.4.4.q.q.q.w.r.4.e.H.hXq.hXcX-.:.2.q.F.D M k./.(.f.0 0 N d.h.B.$Xk.n x 9 0 z h.",
"rX*Xi.p.1X%XC D 2X2XL C G C x.$Xk.n A A V / >.;.-.^ r :.r.u.u.u.E.E.E.0.6.=.: =.:.3.q.v.N s.N.$X&Xk.x x 0 x x s.$XB.n x 0 q m S ",
"eX7Xg.p.1X:XL C %XuXx.C V v j._.B.A S C V J :.:.4.6.> 6.0.0.E.0.u.0.u.7.0.> ^ T.8.q.K.B N D S z.$XB.N M x c c p.$X(.x 9 0 n 6 x ",
"eXrXA.B =X2Xh.5 _.uXQ.v x x h._._.h.D A B G ~ *.;.w.r.6.T.SXUXUXUXE.SXDXw.7.cX0.2.5.O.c V B n D _.^.S 0 x x x x /._.B 0 q z z a.",
"<XrXG.B ^.uXV.f ^.2Xz.z N A h.).$XB.D N B g.l *.;.6.7.>.7.E.VXSXNXE.E.0.0.w.t.7.;.5.F.B M M N A _._.S x c x x v B.$Xk.N 5 x z z.",
";XrX*XM h.,X1Xz._.:Xj.z v A j.k.h.a.B N G v s.~ ;.2.8.6.<.vXW.W.W.W.W.e.hXw.7.>.1.q.|.0 i.V M A B.$Xs.0 x 9 x D /.$X_.a.x 5 c V ",
"-X5XZ.0 x B.=X$X).B.v 0 N z A p.D D S N b p.A.&.r <.6.6.r.;.7.0.0.u.7.q.w.9.8.2.1.w.n.x w V q N z.%X^.D V 0 w i.k.z.s.v z 9 5 z ",
"wX3Xl.q 5 f D z.z.A 5 x N x A a.S S p.i.V B k.%.^ =.8.8.0.6.;.-.;.4.e.E.hXw.4.1.4.L.F.N M M M S /._.C.s.B 0 q w x B B 9 q 5 9 v ",
"6X#XV 4 z 5 f C z.h.b x x v D S A N s.p.N x w &.<.: 4.w.y.vXcXH.hXcXbXNXbXw./ 1.H.H.F.k.A x B D d.s.p.0 z c 5 9 B N.N.v 6 9 z n ",
"#XG.w q z 5 S z.$X^.v z x n p.p.v z d.s.N x M J 6.^ ^ q.cXNXMXNXMXDXNXmXq.^ =.q.L.8.lX[.L f z C M i.g.V 6 f 0 B a.B./.S 5 5 9 6 ",
"3X&Xi.q 5 f A h._./.N z x x a.p.M z i.s.N b w l 6.6.r / e.T.MXcXNXcXhX8.=.=.J.mXhXH.gX+X+XP = l c.B.B.a.z f 6 q v a.z.a.5 4 4 6 ",
"tX3Xg.q 6 f g f z.$Xh.9 n z A p.N v S p.M m 0 J 1.q.-.: ~ 1.q.hXq.-.-.r =.J.cXL.nXL.J.lXlX@XX.# { ~.!.c.C f 5 6 6 v N.k.z 6 5 6 ",
"qX3XV.q 4 5 z 5 c./.k.5 z z v s.A g x d.B c w G 1.4.e.-.r ; ; : ; r ~ 4.H.L.bXcXbXJ.q.lXlXR.-.- R u R I. Xb.K C 1 q k.g.9 3 5 5 ",
";X3XG.V 8 1 5 5 p./.z.f C z v D S N S V 0 A v 7 =.8.4.<.;.4.-.^ -.4.H.bXH.H.bXbXjXH.3.gXlXq.<.& ) W R R } O.U.@X!.Y.Q.h.A < 3 < ",
"#XrXG.i.4 4 7 3 f /._.A f 5 0 f B N N M n f i & : 4.8.4.-.4.hXMXMXbXbXcXH.jXmXbXbXL.9.q.gX4.-.a R a Q ) _ ' I.{ I.I.@X@X!.Y.L h ",
"Z.qX3Xg.9 3 6 5 A /._.z.B 8 6 0 9 N v f u u * - r <.8.8.4.-.4.cXmXcXH.H.H.ZXmXjXP.P.T.gX6.2./ ) p l Q ` '  .@.#.I.{ { I.U.U.@X X",
"N.qX3XZ.S 5 3 0 D /.^.D v 5 0 q 5 g u y u u y > r =.<.5.4.-.=.-.4.8.J.H.bXbXZXbXP.bXhXH.9.4.` } ( _ ' Q Q | ..| ......) U.I.I.I.",
"G.qXtX-XA.w 1 6 f h.h.h.A 5 3 h u u y y s l ; r ^ =.1.<.4.4.;.r.;.8.H.cXH.bXbXZXJ.L.hXH.9.1.I.E _ '  .' [ $.#.#._ _ +.' ) ) ....",
"G.-X-XG.N.0 < 8 C z._.$X(.H u p p y l y y W * / 1.=.-.4.4.<.4.8.8.q.H.w.H.H.L.H.J.H.H.H.5...) E ` `  . .{ @.[ +. ._ _ [ { ......",
"d.C.G.C.B 8 1 4 B./.h.L k p W W W y y y p a p ~ <.^ =.1.8.;.-.<.<.6.8.8.w.H.w.J.J.H.H.J.| [ E ] +.+.#.+.$.@.[ $.| ` ) [  .{ ....",
"V Z.qX6Xi.8 1 4 Q.b.a s W p p u y a a a a y y d 4.=.1.=.1.4.1.=.;.6.8.8.8.8.8.9.8.q.bX1.[ ( | +. .$.$.+.[  .`  . ._ ! W $...) ( ",
"C.6XtX3XN.< 5 l u l W R ( ( R R R y y W W p a * <.5.1.=.:.J.<.-.;.<.6.<.2.3.8.6.7.J.5. ._ _  .+.[ @.@.[  .+.+.+. .' E l ` +.` W ",
"h.(.6X3XA.c % p E ( _ ] ] ( ( ` ` _ Q E E W a W t q./ <.=.4.hX9.<.<.6.2.8.H.9.w.q.5.X.] _ _ +...@. .[ +.@.` ` @.+.] ' ! R  .] a ",
"3 0 #X3X*X6 u W ) ( ) ` ' ' _ ( ` [ ` ) _ W l ) ; X.e.6.4.<.hXmXH.8.6.8.8.bXH.bXhXX.| ) _ [  .#.+.+.+.+.@.@.+.#.+.E +.E y +.] R ",
"< < G.rX*X* } s ( ) _ _ ` +.` W ( _ [ ' ` _ a R ( ; 8.8.J.8.9.ZXBXP.H.H.H.nXnXbXX...' } { #.' $.@.$.#. . .@.+.+. .Q  .( y  .' Q ",
"< < g.3Xb.s ( R ) [  .' `  .' E R R { '  .[ E y +.; ;.9.cXT.w.nXHXFXMXbXbXnXAX6.| | ` ` [ #.| @.+.@. . .[ [ +.#. .'  .E y ` ' _ ",
"= < g.*Xy a R } [ ` ` [ '  .+.` R W ( ` ' ..` y E Q r.w.w.bXcXCXFXKXFXbXcXAXFX/ ] ( ) [  .' $...[ #.@.[  .+.+.$.' +.' E p E _ ' ",
"< 5 A.v.p y Q ] [ _ ` [ [ @.#. .R W R E ( `  .E y Q 5.hXcXbXMXHXFXHXCXcXbXSXR.| _ E ` +.@.| #.#.$.U.U...+.+.+.' '  .' R y a _ _ ",
"= x N.E a p } _ ` [ #.#.[ @.$.[ E E W R W E [ ] y ) X.jXnXCXKXSXJXMXbXbXMXmX| { E `  .@. .| | U... .` +.$.+.+.#.$. .' E y W ( R "
};
